<svg xmlns="http://www.w3.org/2000/svg" viewBox="0 0 32 32" fill="none">
  <path d="M11 26.5c-1.3-1.1-1.7-3.3-1.2-5 .8 1.1 2 1.7 3.3 1.8 1.9.2 3.7-.1 5.3-1.1.2-.1.3-.2.5-.4.1.9-.1 1.8-.5 2.6-.8 1.5-2.2 2.3-3.9 2.6-1.2.2-2.4 0-3.5-.5z" fill="#FF5D01"/>
  <path d="M22.4 21.1c-.3-1.6-1.3-2.8-2.5-3.8-.7-.6-1.5-1.1-2.2-1.7-.2-.2-.4-.4-.5-.7-.1-.4 0-.7.3-1l.1-.1c-1.8.4-3 1.6-3.5 3.3-.2.6-.2 1.2-.1 1.9.1.8-.2 1.4-.8 1.8-.1.1-.2.1-.4.1-.5.1-.9-.2-1-.7v-.2c-1.4 1.3-1.7 2.9-1 4.7.5 1.2 1.4 2 2.6 2.4.3.1.5.1.8.1-2.3-.9-3.2-3.1-2-5.1.5-.8 1.2-1.3 2.1-1.5 1-.2 1.9-.2 2.8.2 1.1.5 1.7 1.3 1.7 2.5 0 .5-.1 1-.4 1.4-.5.8-1.2 1.1-2.1 1.1-.6 0-1.1-.2-1.5-.6-.3-.3-.4-.7-.3-1.1.1-.4.4-.7.8-.8-.1 0-.1 0 0 0 .3.4.7.5 1.1.4.5-.2.8-.7.7-1.2-.1-.7-.7-1-1.4-1-1.2.1-2 1.1-2 2.3 0 1.6 1.3 2.7 2.9 2.5 1.1-.1 2-.6 2.7-1.5.8-1 1-2.1.8-3.3z" fill="#FF5D01"/>
  <path d="M7 22.7s2-4.5 5-5.1L15 7c.1-.5.8-.5.9 0l3.1 10.6c3.2.5 5.3 5.1 5.3 5.1L17.5 3.5a1 1 0 0 0-1-.7h-1.1a1 1 0 0 0-1 .7L7 22.7z" fill="#1A1A1A"/>
</svg>