<svg xmlns="http://www.w3.org/2000/svg" viewBox="0 0 32 32" fill="none">
  <path d="M22.5 22.8H7c-.3 0-.5-.1-.6-.4-.1-.2 0-.5.2-.7l1.5-1c.2-.1.3-.3.3-.5-.1-1.2.3-2.4 1-3.3.8-.9 1.9-1.5 3.1-1.6.3 0 .5-.2.6-.5C14.2 10.6 17.5 8 21.3 8c4.2 0 7.7 3.2 8 7.4 0 .2.2.4.4.5 1.5.5 2.5 1.9 2.5 3.5 0 2-1.6 3.4-3.5 3.4h-6.2z" fill="#F6821F"/>
  <path d="M9 22.8H5.5c-.2 0-.4-.1-.5-.3-.1-.2 0-.4.1-.5l.8-.6c.3-.2.5-.5.5-.9 0-1.3.8-2.5 2-3 .3-.1.5-.4.5-.7 0-.5.1-.9.3-1.3.6-1.5 2-2.5 3.6-2.5.6 0 1.1.1 1.6.4.2.1.2.4 0 .5-.7.5-1.2 1.2-1.5 2-.1.3-.4.5-.7.5-1.3.2-2.4.8-3.2 1.8-.7.9-1 2-1 3.1.1.5-.2.9-.5 1.1l-.5.4z" fill="#FAAE40"/>
</svg>