<svg xmlns="http://www.w3.org/2000/svg" viewBox="0 0 32 32" fill="none">
  <path d="M22.8 6.3l-2.2-1.5-5.5 1.4-3.8-1.8-6 3.5-.7 12.5 3.5 4.8 4.5-1.7 2.5 2 4.5-1 3.2-3.5 2-12.5-2-2.2zm-6.5 16.2l-2.5-1.5-3 1.5-2-2.7.3-8 3.5-2 2.7 1.3 4-1.2 1.5 1.3-1 8.5-3.5 2.8zm-4.5-8.5c-.4.2-.6.7-.4 1.1.2.4.7.6 1.1.4.4-.2.6-.7.4-1.1-.2-.4-.7-.6-1.1-.4zm6 1c-.5 0-.8.4-.8.8 0 .5.4.8.8.8.5 0 .8-.4.8-.8 0-.5-.3-.8-.8-.8z" fill="#632CA6"/>
  <path d="M14.3 17.3c.5-.7 1.5-1 2.3-.8l.5-.5c-1.2-.5-2.5-.1-3.3.8l.5.5zm2.7-.2c-.3.2-.5.6-.3 1l.6-.3c0-.3.1-.5.3-.7l-.6 0z" fill="#632CA6"/>
</svg>