<svg xmlns="http://www.w3.org/2000/svg" viewBox="0 0 32 32" fill="none">
  <path d="M16 28.5L21.2 12.3H10.8L16 28.5z" fill="#E24329"/>
  <path d="M16 28.5L10.8 12.3H3.6L16 28.5z" fill="#FC6D26"/>
  <path d="M3.6 12.3L1.7 18c-.2.5 0 1.1.4 1.4L16 28.5 3.6 12.3z" fill="#FCA326"/>
  <path d="M3.6 12.3h7.2L7.7 3.7c-.2-.5-.8-.5-1 0L3.6 12.3z" fill="#E24329"/>
  <path d="M16 28.5l5.2-16.2h7.2L16 28.5z" fill="#FC6D26"/>
  <path d="M28.4 12.3l1.9 5.7c.2.5 0 1.1-.4 1.4L16 28.5l12.4-16.2z" fill="#FCA326"/>
  <path d="M28.4 12.3h-7.2l3.1-8.6c.2-.5.8-.5 1 0l3.1 8.6z" fill="#E24329"/>
</svg>