<svg xmlns="http://www.w3.org/2000/svg" viewBox="0 0 32 32" fill="none">
  <path d="M16 3c-3.3 0-6 3.5-6 8 0 2.5.7 4.7 1.8 6.2-.5.5-1.3 1.3-2 2.3-1 1.5-1.5 3-.8 3.8.4.4 1 .5 1.8.3 1-.3 2.2-1 3.2-1.7.6.2 1.3.3 2 .3s1.4-.1 2-.3c1 .7 2.2 1.4 3.2 1.7.8.2 1.4.1 1.8-.3.7-.8.2-2.3-.8-3.8-.7-1-1.5-1.8-2-2.3C21.3 15.7 22 13.5 22 11c0-4.5-2.7-8-6-8z" fill="#333"/>
  <ellipse cx="13.5" cy="10" rx="1.2" ry="1.5" fill="white"/>
  <ellipse cx="18.5" cy="10" rx="1.2" ry="1.5" fill="white"/>
  <circle cx="13.8" cy="10.2" r="0.6" fill="#333"/>
  <circle cx="18.8" cy="10.2" r="0.6" fill="#333"/>
  <path d="M14 14c.5.8 1.1 1.2 2 1.2s1.5-.4 2-1.2" stroke="#F0C040" stroke-width="1" fill="none" stroke-linecap="round"/>
  <path d="M13 13.5h6" stroke="#F0C040" stroke-width="0.5"/>
</svg>