<svg xmlns="http://www.w3.org/2000/svg" viewBox="0 0 32 32" fill="none">
  <path d="M16 2C8.3 2 2 8.3 2 16s6.3 14 14 14 14-6.3 14-14S23.7 2 16 2z" fill="#00A1EA" opacity="0.15"/>
  <path d="M10 10c0-1.7 1.3-3 3-3h.5c1 0 2 .5 2.5 1.3L20 14v-4c0-1.7 1.3-3 3-3" stroke="#00A1EA" stroke-width="2" stroke-linecap="round" fill="none"/>
  <path d="M22 22c0 1.7-1.3 3-3 3h-.5c-1 0-2-.5-2.5-1.3L12 18v4c0 1.7-1.3 3-3 3" stroke="#00A1EA" stroke-width="2" stroke-linecap="round" fill="none"/>
  <circle cx="16" cy="16" r="2.5" fill="#00A1EA"/>
</svg>