<svg xmlns="http://www.w3.org/2000/svg" viewBox="0 0 32 32" fill="none">
  <path d="M16 3C8 3 4 5 4 8v16c0 3 4 5 12 5s12-2 12-5V8c0-3-4-5-12-5z" fill="#00758F" opacity="0.15"/>
  <path d="M24.5 9.2c-.4 0-.7.1-1 .2-.2.1-.4.3-.4.5 0 .3.1.5.3.7l.5 1 .3.8c.1.5.1.9-.1 1.2-.6 1-1.8 1.5-3.1 1.5h-.7c-.2 0-.3.1-.3.3v.1c.1.3.4.5.7.6.6.2 1.3.2 1.9.1 1.4-.3 2.5-1.1 3-2.4.1-.1.1-.3.2-.4.1-.8-.1-1.7-.5-2.4-.3-.4-.6-.8-1.1-1 .1.1.2.1.3.1z" fill="#F29111"/>
  <path d="M7 17.5c0 1.2.4 2.2 1.2 3 1 .9 2.3 1.3 3.9 1.3h.5c1.5-.1 2.8-.6 3.8-1.6.8-.8 1.2-1.7 1.2-2.8v-2.7c0-.2-.1-.3-.3-.3h-2.2c-.2 0-.3.1-.3.3v2.5c0 .7-.3 1.3-.8 1.7-.6.4-1.2.6-2 .6-.7 0-1.3-.2-1.8-.6-.5-.4-.8-1-.8-1.7v-2.5c0-.2-.1-.3-.3-.3H7.3c-.2 0-.3.1-.3.3v2.7z" fill="#00758F"/>
  <path d="M18.5 14.4c-.2 0-.3.1-.3.3v5.8c0 .6.2 1 .7 1.3.4.2.8.3 1.3.3h2.5c.5 0 .9-.1 1.3-.3.5-.3.7-.7.7-1.3v-1c0-.2-.1-.3-.3-.3h-2.2c-.2 0-.3.1-.3.3v.5h-1.2v-5.3c0-.2-.1-.3-.3-.3h-1.9z" fill="#00758F"/>
</svg>