<svg xmlns="http://www.w3.org/2000/svg" viewBox="0 0 32 32" fill="none">
  <path d="M27.2 12.9c.5-1.5.4-3.1-.2-4.5a5.9 5.9 0 0 0-3.2-3.1 5.8 5.8 0 0 0-4.4 0 5.9 5.9 0 0 0-3.1-2.4 5.8 5.8 0 0 0-4.5.2A5.9 5.9 0 0 0 9 6.3a5.8 5.8 0 0 0-3.9 1.2A5.9 5.9 0 0 0 3 11a5.9 5.9 0 0 0 .8 5.1 5.9 5.9 0 0 0 .2 4.5 5.9 5.9 0 0 0 3.2 3.1 5.8 5.8 0 0 0 4.4 0 5.9 5.9 0 0 0 3.1 2.4 5.8 5.8 0 0 0 4.5-.2A5.9 5.9 0 0 0 22 22.7c1.5.3 3-.1 4.3-1.1A5.9 5.9 0 0 0 28.4 18a5.9 5.9 0 0 0-1.2-5.1zm-8.7 16c-1 0-2-.3-2.8-.9l.1-.1 4.7-2.7a.8.8 0 0 0 .4-.7v-6.6l2 1.1v5.4a4.5 4.5 0 0 1-4.4 4.5zM5.4 23.5a4.4 4.4 0 0 1-.5-3l.1.1 4.7 2.7a.8.8 0 0 0 .8 0l5.7-3.3v2.2l-4.8 2.7A4.5 4.5 0 0 1 5.4 23.5zM4 11.1a4.4 4.4 0 0 1 2.3-2l0 .1v5.5a.8.8 0 0 0 .4.7l5.7 3.3-2 1.1-4.7-2.7A4.5 4.5 0 0 1 4 11.1zm20.1 4.7-5.7-3.3 2-1.2 4.7 2.8a4.5 4.5 0 0 1-.7 8v-5.6a.8.8 0 0 0-.3-.7zm2-3l-.2-.1-4.6-2.7a.8.8 0 0 0-.8 0l-5.7 3.3V11l4.7-2.7a4.5 4.5 0 0 1 6.6 4.5zm-12.3 4L11.7 16l2-1.2 2 1.2v2.3zm-1.1-4.5L9.9 11a.8.8 0 0 0-.4-.7V4.9a4.5 4.5 0 0 1 5.1 7.3l-2 1.1zm-2 2.4-2-1.2V8.1a4.5 4.5 0 0 1 5-7.3l-.1.1L9 3.6a.8.8 0 0 0-.4.7v6.6z" fill="#412991"/>
</svg>