<svg xmlns="http://www.w3.org/2000/svg" viewBox="0 0 32 32" fill="none">
  <path d="M16 2c-.5 0-1 .3-1 .8v3.4c0 .3-.2.5-.5.4l-2.8-1.2c-.4-.2-.9 0-1.1.4-.2.4 0 .9.4 1.1l3 1.3c.3.1.4.4.2.6l-2 2.4c-.3.3-.2.8.1 1 .3.3.8.2 1.1-.1l2-2.4c.2-.2.5-.2.7 0l2 2.4c.3.3.8.4 1.1.1.3-.3.4-.7.1-1l-2-2.4c-.2-.2-.1-.5.2-.6l3-1.3c.4-.2.6-.7.4-1.1-.2-.4-.7-.6-1.1-.4l-2.8 1.2c-.3.1-.5-.1-.5-.4V2.8c0-.5-.5-.8-1-.8z" fill="#1A1A1A"/>
  <path d="M16 12c-2.2 0-4 1.1-4 2.5v1c0 1.4 1.8 2.5 4 2.5s4-1.1 4-2.5v-1c0-1.4-1.8-2.5-4-2.5z" fill="#1A1A1A"/>
  <path d="M12 16.5v2c0 1.4 1.8 2.5 4 2.5s4-1.1 4-2.5v-2c-.7.8-2.2 1.5-4 1.5s-3.3-.7-4-1.5z" fill="#1A1A1A"/>
  <path d="M12 20v2c0 1.4 1.8 2.5 4 2.5s4-1.1 4-2.5v-2c-.7.8-2.2 1.5-4 1.5s-3.3-.7-4-1.5z" fill="#1A1A1A"/>
  <path d="M12 23.5v2c0 1.4 1.8 2.5 4 2.5s4-1.1 4-2.5v-2c-.7.8-2.2 1.5-4 1.5s-3.3-.7-4-1.5z" fill="#1A1A1A"/>
</svg>