<svg xmlns="http://www.w3.org/2000/svg" viewBox="0 0 32 32" fill="none">
  <circle cx="11" cy="13" r="8" fill="#2EAD33" opacity="0.85"/>
  <circle cx="21" cy="13" r="8" fill="#D65348" opacity="0.85"/>
  <circle cx="11" cy="13" r="5.5" fill="#2EAD33"/>
  <circle cx="21" cy="13" r="5.5" fill="#D65348"/>
  <circle cx="9.5" cy="12" r="1.5" fill="white"/>
  <circle cx="12.5" cy="12" r="1.5" fill="white"/>
  <circle cx="9.8" cy="12.3" r="0.6" fill="#1A1A1A"/>
  <circle cx="12.8" cy="12.3" r="0.6" fill="#1A1A1A"/>
  <circle cx="19.5" cy="12" r="1.5" fill="white"/>
  <circle cx="22.5" cy="12" r="1.5" fill="white"/>
  <circle cx="19.8" cy="12.3" r="0.6" fill="#1A1A1A"/>
  <circle cx="22.8" cy="12.3" r="0.6" fill="#1A1A1A"/>
  <path d="M9 16c.5.8 1.2 1.2 2 1.2s1.5-.4 2-1.2" stroke="white" stroke-width="0.8" fill="none" stroke-linecap="round"/>
  <path d="M19 16c.5.8 1.2 1.2 2 1.2s1.5-.4 2-1.2" stroke="white" stroke-width="0.8" fill="none" stroke-linecap="round"/>
  <path d="M8 22l3-2m0 0l-1 6m1-6l1 6m7-8l3-2m0 0l-1 6m1-6l1 6" stroke="#E2574C" stroke-width="1.2" stroke-linecap="round"/>
</svg>