<svg xmlns="http://www.w3.org/2000/svg" viewBox="0 0 32 32" fill="none">
  <circle cx="16" cy="16" r="14" fill="#1A1A1A"/>
  <path d="M22.5 9.5c-.8 0-1.5.3-2.2.8-.9.7-1.7 1.7-2.4 2.8l-.3-.2c.4-1.6.5-3 .2-3.8-.4-1-1.2-1.4-2-1.4-1.5 0-2.8 1.4-3.2 2l1 .8c.4-.5.9-1 1.3-1 .5 0 .6.5.5 1.4-.2 1.1-.6 2.6-1.2 4.2-.8-.4-1.7-.6-2.6-.5-2.2.2-3.5 1.6-3.6 3 0 1.5 1 2 1.7 2 1.3 0 2.4-1 3.4-2.7.6.3 1 .5 1.3.7-1 1.8-1.2 3.3-.5 4.3.5.6 1.2.9 2 .9 1.5 0 2.7-1 3.6-2l-.8-1c-.6.7-1.3 1.2-2 1.2-.8 0-1-.8-.5-2.2.2-.6.6-1.4 1-2.2.8-.2 1.6-.3 2.7-.3l.3-1.3c-.8 0-1.5.1-2.1.2.7-1.3 1.4-2.2 2.1-2.6.4-.2.7-.3 1-.3.4 0 .6.2.6.5 0 .6-.5.9-.5 1.4 0 .5.4.9 1 .9.7 0 1.2-.6 1.2-1.3 0-1-.8-1.8-2.1-1.8zm-11.8 7.7c-.5.7-1.1 1.2-1.6 1.2-.4 0-.7-.3-.7-.8 0-1 .8-1.8 1.9-1.9.4 0 .8.1 1.3.3-.3.5-.6 1-.9 1.2z" fill="white"/>
</svg>